<?xml version="1.0" encoding="utf-8"?>
<!-- Generator: Adobe Illustrator 23.0.3, SVG Export Plug-In . SVG Version: 6.00 Build 0)  -->
<svg version="1.1" id="Layer_1" xmlns="http://www.w3.org/2000/svg" xmlns:xlink="http://www.w3.org/1999/xlink" x="0px" y="0px"
	 viewBox="0 0 79 79" style="enable-background:new 0 0 79 79;" xml:space="preserve">
<style type="text/css">
	.st0{display:none;fill:url(#SVGID_1_);}
	.st1{fill:#0C0C0C;}
	.st2{fill:#060606;}
	.st3{fill:#131313;}
	.st4{fill:#242424;}
	.st5{fill:#191919;}
	.st6{fill:#1E1E1E;}
	.st7{fill:#2B2B2B;}
	.st8{fill:#313131;}
	.st9{fill:#474747;}
	.st10{fill:#383838;}
	.st11{fill:#3F3F3F;}
	.st12{fill:#515151;}
	.st13{fill:#5C5C5C;}
	.st14{fill:#676767;}
</style>
<radialGradient id="SVGID_1_" cx="39.5225" cy="489.5195" r="79.0388" gradientTransform="matrix(1 0 0 1 0 -529.039)" gradientUnits="userSpaceOnUse">
	<stop  offset="0" style="stop-color:#20C6B7"/>
	<stop  offset="1" style="stop-color:#4D9ABF"/>
</radialGradient>
<path class="st0" d="M57.3,27.4L57.3,27.4C57.2,27.4,57.2,27.4,57.3,27.4c-0.1-0.1-0.1-0.2-0.1-0.2l1.6-9.7l7.5,7.5l-7.8,3.3
	c0,0,0,0-0.1,0h0c0,0,0,0,0,0C58,27.9,57.7,27.6,57.3,27.4z M68.1,26.8l8,8c1.7,1.7,2.5,2.5,2.8,3.5c0,0.1,0.1,0.3,0.1,0.4
	l-19.1-8.1l0,0c-0.1,0-0.2-0.1-0.2-0.1s0.1-0.1,0.2-0.1l0,0L68.1,26.8z M78.7,41.3c-0.7,1.1-1.6,2.1-2.6,2.9l-9,9l-11.7-2.4l-0.1,0
	c-0.1,0-0.2,0-0.2-0.1c-0.1-1-0.6-1.9-1.4-2.5c0,0,0-0.1,0-0.2c0,0,0,0,0,0L56,34.5l0,0c0-0.1,0-0.2,0.1-0.2
	c0.9-0.1,1.8-0.6,2.4-1.4c0,0,0,0,0.1-0.1c0.1,0,0.1,0,0.2,0L78.7,41.3L78.7,41.3z M65,55.3L50.2,70.1l2.5-15.6v0c0,0,0,0,0-0.1
	c0,0,0.1-0.1,0.1-0.1l0,0c0.6-0.2,1-0.6,1.4-1.1c0-0.1,0.1-0.1,0.2-0.1c0,0,0,0,0.1,0L65,55.3L65,55.3z M47.1,73.2l-1.7,1.7
	L26.9,48.2l0,0c0,0-0.1-0.1-0.1-0.1c0,0,0-0.1,0-0.1l0,0c0.1-0.1,0.1-0.2,0.2-0.3l0-0.1l0,0c0-0.1,0.1-0.1,0.1-0.1c0,0,0.1,0,0.2,0
	l20.5,4.2c0.1,0,0.1,0,0.2,0.1c0,0,0,0.1,0,0.1c0.3,1.1,1.1,2,2.1,2.4c0.1,0,0,0.1,0,0.2c0,0,0,0.1,0,0.1
	C49.9,56.1,47.7,69.6,47.1,73.2z M43.6,76.7c-0.8,0.9-1.7,1.6-2.8,2.1c-0.8,0.3-1.7,0.3-2.5,0c-1-0.3-1.8-1.1-3.5-2.8L16.3,57.5
	l4.8-7.5c0,0,0-0.1,0.1-0.1c0.1,0,0.1,0,0.2,0c1.1,0.3,2.3,0.3,3.4-0.2c0.1,0,0.1,0,0.2,0c0,0,0,0,0.1,0.1L43.6,76.7L43.6,76.7z
	 M14.5,55.7l-4.3-4.3l8.4-3.6c0,0,0,0,0.1,0c0.1,0,0.1,0.1,0.1,0.1c0.1,0.1,0.2,0.3,0.3,0.4l0,0c0,0,0,0.1,0,0.1L14.5,55.7
	L14.5,55.7z M8.4,49.6L3,44.2c-0.9-0.9-1.6-1.6-2-2.1l16.4,3.4l0.1,0c0.1,0,0.2,0,0.2,0.1s-0.1,0.2-0.2,0.2l0,0L8.4,49.6z M0,39.3
	c0-0.3,0.1-0.7,0.2-1c0.3-1,1.1-1.8,2.8-3.5l6.9-6.9c3.2,4.6,6.4,9.2,9.5,13.8c0.1,0.1,0.1,0.2,0.1,0.2c-0.3,0.3-0.6,0.7-0.8,1.1
	c0,0.1-0.1,0.1-0.1,0.1c0,0-0.1,0-0.1,0l0,0L0,39.3L0,39.3z M11.7,26.1l9.3-9.3c0.9,0.4,4,1.7,6.9,2.9c2.1,0.9,4.1,1.7,4.7,2
	c0.1,0,0.1,0.1,0.1,0.1c0,0,0,0.1,0,0.1c-0.3,1.4,0.1,2.8,1.1,3.8c0.1,0.1,0,0.1-0.1,0.2l0,0l-9.4,14.6c0,0-0.1,0.1-0.1,0.1
	c-0.1,0-0.1,0-0.2,0c-0.4-0.1-0.7-0.1-1.1-0.2c-0.4,0-0.7,0.1-1.1,0.1l0,0c0,0-0.1,0-0.1,0c0,0-0.1-0.1-0.1-0.1L11.7,26.1z M22.9,15
	l12-12c1.7-1.7,2.5-2.5,3.5-2.8c0.8-0.3,1.7-0.3,2.5,0c1,0.3,1.8,1.1,3.5,2.8l2.6,2.6l-8.5,13.2c0,0-0.1,0.1-0.1,0.1
	c-0.1,0-0.1,0-0.2,0c-1.4-0.4-2.8-0.1-4,0.8c-0.1,0.1-0.1,0-0.2,0C32.8,19.2,24.1,15.5,22.9,15z M48.7,7.4l7.9,7.9L54.6,27v0
	c0,0,0,0.1,0,0.1c0,0-0.1,0-0.1,0.1c-0.4,0.1-0.8,0.3-1.1,0.6c0,0,0,0,0,0c0,0,0,0-0.1,0.1c0,0-0.1,0-0.1,0l-12-5.1l0,0
	c-0.1,0-0.2-0.1-0.2-0.1c-0.1-0.7-0.3-1.3-0.6-1.9c-0.1-0.1-0.1-0.2-0.1-0.3L48.7,7.4z M40.6,25.1l11.3,4.8c0.1,0,0.1,0.1,0.2,0.1
	c0,0,0,0.1,0,0.1c0,0.2-0.1,0.4-0.1,0.5V31c0,0.1-0.1,0.1-0.2,0.1l0,0c-1.8,0.8-25,10.7-25.1,10.7c0,0-0.1,0-0.1,0
	c-0.1-0.1,0-0.1,0.1-0.2l0,0l9.2-14.3l0,0C36,27.1,36,27,36.1,27l0.1,0c0.2,0,0.4,0.1,0.6,0.1c1.4,0,2.7-0.7,3.5-1.8
	c0,0,0-0.1,0.1-0.1C40.4,25.1,40.5,25.1,40.6,25.1z M27.7,44.1L53,33.3c0,0,0.1,0,0.1,0c0.1,0.1,0.2,0.2,0.4,0.3l0.1,0
	c0.1,0,0.1,0.1,0.1,0.1c0,0,0,0,0,0.1l-2.2,13.3l0,0.1c0,0.1,0,0.2-0.1,0.2c-1.2,0.1-2.2,0.7-2.8,1.7l0,0c0,0-0.1,0.1-0.1,0.1
	c0,0-0.1,0-0.1,0L28,45.1C28,45.1,27.7,44.1,27.7,44.1z"/>
<g>
	<path d="M33.6,74.3c-10.9,0-21.8,0-33.1,0C13.6,51,26.5,28.1,39.8,4.5c7.4,13.3,14.6,26.2,21.7,39.2c0.7,1.3,0,2.3-0.9,3.1
		c-6.2,6-11.6,12.8-18.1,18.5C39.4,68.1,37,71.8,33.6,74.3z"/>
	<path class="st1" d="M39.2,74.3c-1.2,0-2.3,0-3.5,0c-0.3-1.5,0.9-2.3,1.8-3.2c8.3-8.7,17-17,24.8-26.2c0.7,0.6,1.1,1.4,1.3,2.3
		c0.8,1.3-0.1,2.2-0.9,3c-7.4,8-15,15.7-22.6,23.5C39.8,74.1,39.5,74.2,39.2,74.3z"/>
	<path class="st2" d="M62.3,45c-1.5,4.3-5.1,7-8,10.2c-6,6.6-12.7,12.5-18.6,19.2c-0.7,0-1.4,0-2.1,0c2.5-4.1,6.2-7.1,9.4-10.5
		c4.1-4.3,8.6-8.3,12.3-12.9c2-2.5,5.5-3.7,6.2-7.2C62.1,43.9,62.2,44.4,62.3,45z"/>
	<path class="st3" d="M39.2,74.3c2.8-4.7,7.3-8,10.9-12c4.2-4.6,8.6-9,12.8-13.5c0.4-0.4,0.4-1,0.6-1.6c1,0.6,0.6,2,1.5,2.6
		c-0.2,2.8-2.8,3.7-4.3,5.4c-5.1,5.6-10.6,10.9-15.8,16.4c-1.1,1.1-2.2,2.1-3.6,2.6C40.6,74.3,39.9,74.3,39.2,74.3z"/>
	<path class="st4" d="M49.6,74.3c-0.9,0-1.9,0-2.8,0c-0.1-2.2,1.8-3.2,2.9-4.4c5.5-5.9,10.7-12.1,16.6-17.7c0.8,0.7,1.2,1.6,1.5,2.6
		c0.4,1.4-0.5,2.5-1.3,3.3c-4.8,4.8-9.5,9.7-14.2,14.5C51.5,73.4,50.6,73.9,49.6,74.3z"/>
	<path class="st5" d="M41.3,74.3c7.9-8.1,15.8-16.3,23.8-24.4c0.6,0.3,0.7,0.8,0.7,1.3c0.3,0.6,0.1,1.2-0.3,1.6
		c-6.5,7-13,14.1-19.9,20.7c-0.4,0.4-1,0.5-1.5,0.8C43.1,74.3,42.2,74.3,41.3,74.3z"/>
	<path class="st6" d="M44.1,74.3c6.3-6.7,12.7-13.3,19-20c0.9-1,1.8-2.1,2.7-3.1c0.2,0.3,0.4,0.7,0.6,1c-1.7,4.7-6.2,6.9-9.1,10.6
		c-3.2,4.1-6.9,7.7-10.4,11.5C45.9,74.3,45,74.3,44.1,74.3z"/>
	<path class="st7" d="M49.6,74.3c5.2-5.3,10.3-10.6,15.5-16c1-1.1,1.8-2.3,2.7-3.5c0.6,0.3,0.7,0.7,0.7,1.3c0.5,1.1,0.2,2.1-0.5,2.9
		c-4.6,5.1-9.2,10.2-14.4,14.7c-0.3,0.3-0.8,0.4-1.2,0.6C51.5,74.3,50.6,74.3,49.6,74.3z"/>
	<path class="st8" d="M52.4,74.3c4.6-4.8,9.2-9.7,13.8-14.5c1-1.1,2.1-2.1,2.3-3.7c0.7,0.6,1.1,1.4,1.3,2.3c0.7,1.1,0.1,2.1-0.7,2.8
		c-4.9,3.9-8.6,9.1-13.3,13.2C54.8,74.3,53.6,74.3,52.4,74.3z"/>
	<path class="st9" d="M72.1,62.4c1,1.1,1.6,2.3,2.1,3.7c-2,3.3-4.8,5.9-7.8,8.3c-1.4,0-2.8,0-4.2,0c-0.8-2.2,1.3-3,2.2-4.2
		C66.5,67.2,68.9,64.3,72.1,62.4z"/>
	<path class="st10" d="M55.9,74.3c2.7-3.9,5.6-7.5,9.3-10.5c1.8-1.5,4-2.8,4.6-5.4c0.5,0.9,1,1.8,1.5,2.7c-1,2.9-3.4,4.6-5.6,6.4
		c-2.7,2.2-4.3,5.5-7.7,6.8C57.3,74.3,56.6,74.3,55.9,74.3z"/>
	<path class="st11" d="M58,74.3c4.5-4.4,8.9-8.8,13.4-13.2c0.6,0.2,0.6,0.7,0.7,1.2c-3,4.2-7.2,7.5-9.9,12
		C60.8,74.3,59.4,74.3,58,74.3z"/>
	<path class="st12" d="M66.4,74.3c2-3.3,4.7-5.9,7.8-8.3c0.8,0.7,1.2,1.6,1.5,2.6c-0.7,2.8-2.6,4.5-5,5.7
		C69.2,74.3,67.8,74.3,66.4,74.3z"/>
	<path class="st13" d="M70.6,74.3c1.7-1.9,3.3-3.8,5-5.7c1.2,0.9,1.2,2.6,2.1,3.7c-0.4,1-1.3,1.6-2.2,2
		C73.8,74.3,72.2,74.3,70.6,74.3z"/>
	<path class="st14" d="M75.4,74.3c0.5-0.9,0.9-2,2.2-2c0.3,0.6,1,1.5,0.9,1.6C77.7,74.9,76.5,74.4,75.4,74.3z"/>
</g>
</svg>
