<?xml version="1.0" encoding="utf-8"?>
<!-- Generator: Adobe Illustrator 23.0.3, SVG Export Plug-In . SVG Version: 6.00 Build 0)  -->
<svg version="1.1" id="Layer_1" xmlns="http://www.w3.org/2000/svg" xmlns:xlink="http://www.w3.org/1999/xlink" x="0px" y="0px"
	 viewBox="0 0 53 53" style="enable-background:new 0 0 53 53;" xml:space="preserve">
<style type="text/css">
	.st0{display:none;}
	.st1{display:inline;}
	.st2{fill:#171717;}
	.st3{display:inline;fill:none;}
</style>
<g transform="translate(-611 -14016)" class="st0">
	<g transform="translate(621 14026)" class="st1">
		<path class="st2" d="M0,17.3V34h7.9V11.3H0V17.3z"/>
		<path class="st2" d="M4,0C1.8,0,0,1.8,0,4c0,2.2,1.8,4,4,4c2.2,0,4-1.8,4-4c0,0,0,0,0,0C7.9,1.8,6.2,0,4,0z"/>
		<path class="st2" d="M33.8,18.3c-0.5-4.3-2.5-7-8.3-7c-3.4,0-5.7,1.3-6.7,3.1h-0.1v-3.1h-6.3V34h6.6V22.8c0-3,0.6-5.8,4.2-5.8
			c3.6,0,3.9,3.4,3.9,6v11H34V21.5C34,20.5,33.9,19.4,33.8,18.3z"/>
	</g>
	<rect x="611" y="14016" class="st3" width="53" height="53"/>
</g>
<g id="XMLID_22_">
	<g id="XMLID_64_">
		<defs>
			<path id="XMLID_65_" d="M26.5,48C14.6,48,5,38.3,5,26.5C5,14.7,14.6,5,26.5,5C38.4,5,48,14.7,48,26.5C48,38.3,38.4,48,26.5,48
				L26.5,48z M44.6,29.4c-0.6-0.2-5.7-1.7-11.4-0.8c2.4,6.6,3.4,12,3.6,13.1C40.9,38.9,43.8,34.5,44.6,29.4L44.6,29.4z M33.7,43.4
				c-0.3-1.6-1.3-7.2-3.9-13.9c0,0-0.1,0-0.1,0C19.3,33.1,15.6,40.3,15.2,41c3.1,2.4,7,3.9,11.3,3.9C29,44.9,31.5,44.3,33.7,43.4
				L33.7,43.4z M12.9,38.8c0.4-0.7,5.5-9,14.9-12.1c0.2-0.1,0.5-0.1,0.7-0.2c-0.5-1-1-2.1-1.5-3.1C17.8,26.1,8.9,26,8.1,26
				c0,0.2,0,0.4,0,0.6C8.1,31.2,9.9,35.5,12.9,38.8L12.9,38.8z M8.5,22.8c0.8,0,8.4,0,17-2.2c-3-5.4-6.3-9.9-6.8-10.6
				C13.6,12.4,9.7,17.1,8.5,22.8L8.5,22.8z M22.2,8.7c0.5,0.7,3.8,5.2,6.9,10.7c6.5-2.4,9.3-6.2,9.6-6.6c-3.2-2.9-7.5-4.6-12.2-4.6
				C25,8.2,23.6,8.4,22.2,8.7L22.2,8.7z M40.7,14.9c-0.4,0.5-3.5,4.5-10.3,7.2c0.4,0.9,0.8,1.8,1.2,2.7c0.1,0.3,0.3,0.6,0.4,0.9
				c6.1-0.8,12.2,0.5,12.8,0.6C44.8,22,43.3,18.1,40.7,14.9L40.7,14.9z"/>
		</defs>
		<use xlink:href="#XMLID_65_"  style="overflow:visible;fill-rule:evenodd;clip-rule:evenodd;fill:#171717;"/>
		<clipPath id="XMLID_2_">
			<use xlink:href="#XMLID_65_"  style="overflow:visible;"/>
		</clipPath>
	</g>
</g>
</svg>
